<svg xmlns="http://www.w3.org/2000/svg" viewBox="0 0 195 40" width="195" height="40" fill="none" role="img" aria-label="Runcell">
  <rect x="3" y="3" width="34" height="34" rx="9" stroke="#0a0a0a" stroke-width="3" fill="none"/>
  <rect x="15.5" y="12" width="9" height="16" rx="2" fill="#0a0a0a"/>
  <path d="M61.17 32.05L57.94 32.05L57.94 7.96L65.39 7.96Q67.61 7.96 69.26 8.83Q70.91 9.70 71.83 11.27Q72.75 12.84 72.75 14.95Q72.75 17.39 71.52 19.14Q70.28 20.89 68.23 21.62L73.08 32.05L69.49 32.05L64.90 21.98L61.17 21.98L61.17 32.05M61.17 10.86L61.17 19.08L65.39 19.08Q67.24 19.08 68.32 17.95Q69.39 16.83 69.39 14.98Q69.39 13.10 68.30 11.98Q67.21 10.86 65.39 10.86L61.17 10.86M84.67 32.38Q81.47 32.38 79.55 30.49Q77.64 28.61 77.64 25.38L77.64 13.89L80.91 13.89L80.91 25.38Q80.91 27.29 81.91 28.40Q82.92 29.50 84.67 29.50Q86.45 29.50 87.47 28.40Q88.50 27.29 88.50 25.38L88.50 13.89L91.76 13.89L91.76 25.38Q91.76 28.61 89.83 30.49Q87.90 32.38 84.67 32.38M100.77 32.05L97.50 32.05L97.50 13.89L100.74 13.89L100.74 17.36L100.77 17.36Q101 15.58 102.27 14.57Q103.54 13.57 105.62 13.57Q108.33 13.57 109.94 15.28Q111.56 17 111.56 19.90L111.56 32.05L108.29 32.05L108.29 20.43Q108.29 18.45 107.30 17.39Q106.31 16.34 104.60 16.34Q102.82 16.34 101.79 17.44Q100.77 18.55 100.77 20.53" fill="#0a0a0a"/>
  <path d="M124.56 32.38Q121.23 32.38 119.22 30.51Q117.21 28.65 117.21 25.38L117.21 20.53Q117.21 17.29 119.22 15.43Q121.23 13.57 124.56 13.57Q127.77 13.57 129.73 15.26Q131.69 16.96 131.79 19.90L128.56 19.90Q128.46 18.25 127.39 17.34Q126.31 16.44 124.56 16.44Q122.68 16.44 121.58 17.51Q120.47 18.58 120.47 20.53L120.47 25.38Q120.47 27.36 121.58 28.42Q122.68 29.47 124.56 29.47Q126.35 29.47 127.40 28.58Q128.46 27.69 128.56 26.04L131.79 26.04Q131.69 28.98 129.73 30.68Q127.77 32.38 124.56 32.38M144.10 32.38Q140.83 32.38 138.84 30.43Q136.84 28.48 136.84 25.12L136.84 20.83Q136.84 17.46 138.84 15.51Q140.83 13.57 144.10 13.57Q146.28 13.57 147.91 14.44Q149.55 15.31 150.45 16.88Q151.36 18.45 151.36 20.53L151.36 23.80L140.04 23.80L140.04 25.38Q140.04 27.36 141.13 28.48Q142.22 29.60 144.10 29.60Q145.68 29.60 146.71 29.01Q147.73 28.42 147.93 27.36L151.20 27.36Q150.87 29.67 148.92 31.02Q146.97 32.38 144.10 32.38M140.04 20.53L140.04 21.39L148.16 21.39L148.16 20.53Q148.16 18.45 147.10 17.33Q146.05 16.21 144.10 16.21Q142.15 16.21 141.10 17.33Q140.04 18.45 140.04 20.53M172.22 32.05L166.61 32.05Q164.13 32.05 162.65 30.59Q161.16 29.14 161.16 26.73L161.16 10.93L154.96 10.93L154.96 7.96L164.43 7.96L164.43 26.70Q164.43 27.79 165.04 28.43Q165.65 29.08 166.71 29.08L172.22 29.08L172.22 32.05M192.02 32.05L186.41 32.05Q183.93 32.05 182.45 30.59Q180.96 29.14 180.96 26.73L180.96 10.93L174.76 10.93L174.76 7.96L184.23 7.96L184.23 26.70Q184.23 27.79 184.84 28.43Q185.45 29.08 186.51 29.08L192.02 29.08" fill="#0a0a0a" fill-opacity="0.38"/>
</svg>
